<svg width="391" height="178" viewBox="0 0 391 178" fill="none" xmlns="http://www.w3.org/2000/svg">
<path d="M337.968 95.5953C337.885 95.5953 337.802 95.6856 337.718 95.6856C337.22 95.9564 336.722 96.2272 336.307 96.5883L332.654 94.9635L334.398 99.2964C334.149 100.019 333.983 100.741 333.983 101.463L315.47 95.8661C315.47 95.8661 295.877 106.247 296.541 118.704C296.541 118.704 307.998 103.268 316.051 104.622C316.051 104.622 334.979 109.948 341.454 110.219C347.017 106.428 361.047 91.7137 361.047 91.7137C367.439 86.2073 384.375 93.4289 384.375 93.4289C379.311 82.2355 357.56 83.77 357.56 83.77L344.028 98.5742C343.696 97.9423 343.281 97.3105 342.7 96.8591L342.284 92.1651L339.877 95.5051C339.379 95.4148 338.798 95.4148 338.217 95.4148C338.217 95.5051 338.051 95.5051 337.968 95.5953Z" fill="#333333"/>
<path d="M371.258 24.4633C370.677 24.3731 370.179 23.7412 370.013 22.5677C369.93 23.2898 369.764 24.1925 369.681 24.9147C367.356 17.7834 362.707 11.6451 355.069 12.3672C357.809 13.2699 359.054 16.5196 360.05 19.2277C363.62 16.7002 364.533 21.1234 364.865 23.9217C366.443 23.1996 367.854 24.3731 368.767 25.7271V25.9979C368.601 27.5325 369.515 28.706 370.677 28.7963C371.756 29.1573 373.001 28.4352 373.333 26.9006L373.416 26.6298C374.662 25.7271 376.322 25.0952 377.567 26.359C378.73 23.7412 380.971 19.9499 383.545 23.6509C385.288 21.3942 387.529 18.7764 390.269 18.9569C383.296 15.5267 377.069 19.5888 372.669 25.5466C372.835 24.8244 373.001 23.9217 373.084 23.2898C372.586 24.1925 371.839 24.5536 371.258 24.4633Z" fill="#333333"/>
<path d="M368.02 128.815C367.356 128.634 366.858 127.912 366.775 126.558C366.609 127.37 366.36 128.363 366.194 129.085C364.367 120.781 359.801 113.288 351.167 113.198C354.073 114.552 355.235 118.343 355.983 121.503C360.216 119.156 360.881 124.121 360.881 127.37C362.79 126.829 364.201 128.273 365.032 129.808L364.949 130.078C364.533 131.794 365.447 133.238 366.775 133.418C368.02 133.96 369.432 133.238 369.93 131.613L370.013 131.342C371.507 130.439 373.416 129.988 374.745 131.613C376.322 128.815 379.228 124.843 381.718 129.266C383.877 127.009 386.699 124.301 389.771 124.843C382.299 120.149 374.828 123.94 369.349 129.988C369.598 129.266 369.847 128.273 370.096 127.461C369.432 128.724 368.601 129.085 368.02 128.815Z" fill="#333333"/>
<path d="M349.175 163.117C348.926 162.936 348.843 162.575 349.009 162.124C348.843 162.395 348.677 162.756 348.511 163.027C348.76 159.596 347.93 156.166 344.609 154.902C345.605 155.805 345.522 157.43 345.439 158.784C347.349 158.513 347.016 160.499 346.601 161.673C347.349 161.673 347.764 162.485 347.93 163.207L347.847 163.298C347.515 163.929 347.681 164.561 348.179 164.832C348.594 165.193 349.258 165.103 349.59 164.561L349.673 164.471C350.337 164.381 351.084 164.471 351.416 165.193C352.33 164.381 353.907 163.207 354.322 165.283C355.401 164.742 356.813 164.11 357.892 164.742C355.567 161.853 352.33 162.305 349.507 163.839C349.673 163.568 349.922 163.207 350.088 163.027C349.756 163.298 349.341 163.298 349.175 163.117Z" fill="#333333"/>
<path d="M232.783 14.2627C232.534 14.1724 232.285 13.9016 232.202 13.36C232.119 13.6308 232.036 14.0822 232.036 14.4432C231.123 11.1033 229.131 8.12438 225.644 8.30492C226.889 8.75627 227.387 10.2909 227.802 11.5546C229.463 10.4714 229.878 12.5476 229.878 13.8114C230.625 13.5406 231.206 14.0822 231.621 14.7141V14.8043C231.455 15.5265 231.87 16.0681 232.451 16.1584C232.949 16.3389 233.531 16.0681 233.697 15.3459V15.2557C234.278 14.8946 235.025 14.6238 235.606 15.2557C236.187 14.0822 237.266 12.367 238.429 14.1724C239.259 13.1795 240.338 12.0962 241.666 12.1865C238.512 10.3811 235.606 12.1865 233.448 14.7141C233.531 14.4432 233.614 13.9919 233.697 13.7211C233.364 14.1724 233.032 14.353 232.783 14.2627Z" fill="#333333"/>
<path d="M155.327 107.692C153.169 108.504 150.263 107.421 147.773 103.72C148.603 106.247 149.765 109.678 150.595 112.295C130.588 92.075 104.437 80.0692 79.1165 97.6717C89.9088 95.415 99.871 104.081 107.675 111.664C115.811 95.9566 126.437 109.226 132.165 118.524C136.565 112.927 143.207 114.191 148.52 116.989L148.769 117.802C150.678 123.579 155.825 125.836 159.976 123.669C164.459 122.857 167.448 117.621 165.871 111.844L165.622 110.941C168.444 105.345 173.176 100.019 179.735 101.734C179.32 90.4502 180.731 73.0282 195.84 80.5206C198.082 69.4174 201.485 56.0575 211.448 51.0024C181.478 52.8981 166.784 79.3471 161.471 108.504C160.806 105.886 159.81 102.366 159.146 99.7479C159.229 104.261 157.486 106.97 155.327 107.692Z" fill="#FE772D"/>
<path d="M97.5465 22.2063C97.2144 21.6647 97.1314 20.762 97.7955 19.6787C97.2974 20.1301 96.5502 20.762 96.0521 21.3036C98.9578 13.8112 99.2898 5.41617 92.7314 0C94.3087 2.79835 93.1465 6.40913 92.1503 9.29775C96.6333 10.1102 94.4748 14.2626 92.8144 16.7901C94.5578 17.5123 94.8899 19.4079 94.7238 21.2133L94.5578 21.3939C93.3955 22.4771 93.3125 24.1019 94.2257 25.0949C94.8899 26.2684 96.3842 26.6295 97.5465 25.6365L97.7125 25.456C99.2898 25.7268 101.033 26.5392 101.199 28.5252C103.773 27.3516 108.09 26.0879 107.758 30.9624C110.663 30.5111 114.15 30.15 116.226 32.497C112.905 24.2825 105.35 22.7479 97.9615 24.0117C98.5427 23.5603 99.2068 23.0187 99.788 22.5674C98.7917 22.9284 97.9615 22.7479 97.5465 22.2063Z" fill="#333333"/>
<path d="M53.2147 96.4978C52.6336 96.8589 51.7204 96.6784 50.8072 95.6854C51.1393 96.4076 51.6374 97.4005 52.0525 98.1227C45.1619 93.1579 36.7771 90.9914 30.0526 97.5811C33.2073 96.3173 36.528 98.3935 39.1846 100.199C40.928 95.0535 44.6638 98.4838 46.8223 100.921C47.9015 99.0254 49.894 99.0254 51.6374 99.567L51.7204 99.8378C52.5506 101.463 54.2109 101.824 55.2902 101.011C56.6185 100.56 57.2826 98.8448 56.5355 97.1297L56.4524 96.8589C57.0336 95.0535 58.1958 93.1579 60.2713 93.3384C59.6071 89.9984 59.2751 84.6725 64.0901 86.1168C64.2562 82.6866 64.6712 78.5342 67.4109 76.458C58.5279 78.6245 55.3732 87.2903 55.1241 96.3173C54.7921 95.5951 54.377 94.6022 54.0449 93.88C54.2109 95.2341 53.7958 96.1367 53.2147 96.4978Z" fill="#333333"/>
<path d="M300.941 110.4C300.526 110.761 299.779 110.67 299.032 110.039C299.364 110.58 299.779 111.212 300.111 111.754C294.549 108.594 288.157 107.601 283.508 113.108C285.749 111.934 288.489 113.198 290.564 114.371C291.477 110.4 294.549 112.656 296.375 114.281C297.04 112.747 298.617 112.656 299.945 112.837L300.028 113.017C300.775 114.191 302.021 114.371 302.851 113.559C303.764 113.108 304.179 111.754 303.515 110.58L303.432 110.4C303.764 108.955 304.511 107.511 306.006 107.421C305.341 104.983 304.677 101.012 308.413 101.734C308.33 99.1159 308.33 95.9565 310.239 94.1511C303.681 96.4981 301.938 103.359 302.353 110.129C302.021 109.587 301.689 108.865 301.356 108.323C301.606 109.407 301.356 110.129 300.941 110.4Z" fill="#333333"/>
<path d="M14.0301 102.546C13.698 102.908 13.1169 103.088 12.3697 102.817C12.7848 103.178 13.3659 103.63 13.781 103.901C8.13579 102.998 2.49055 104.171 0 110.31C1.57735 108.595 4.23393 108.865 6.30939 109.136C6.06034 105.435 9.21503 106.428 11.2075 107.24C11.3735 105.706 12.6188 105.164 13.8641 104.984L14.0301 105.074C14.9433 105.796 16.1056 105.525 16.5206 104.713C17.1848 103.991 17.1848 102.727 16.2716 101.915L16.1056 101.824C16.0225 100.47 16.2716 99.026 17.5169 98.4843C16.2716 96.5887 14.6942 93.4292 18.015 92.8876C17.2678 90.7212 16.4376 88.0131 17.5999 85.9369C12.7018 89.999 12.9509 96.3179 15.1093 101.915C14.6942 101.554 14.1961 101.102 13.781 100.741C14.2791 101.463 14.2791 102.185 14.0301 102.546Z" fill="#333333"/>
<path d="M84.0145 171.331C83.1844 170.88 82.6032 169.706 82.8523 167.811C82.4372 168.804 81.8561 170.158 81.441 171.151C80.9429 159.055 76.5429 147.41 64.5883 144.611C68.3241 147.32 68.9052 152.916 69.2373 157.61C75.7127 155.534 75.2976 162.756 74.5504 167.269C77.2901 166.998 78.8674 169.436 79.6976 171.873L79.5315 172.234C78.5353 174.491 79.4485 176.747 81.2749 177.379C82.7693 178.553 85.0108 177.921 86.09 175.754L86.256 175.393C88.5805 174.671 91.3201 174.581 92.7315 177.108C95.5541 173.678 100.618 169.074 103.026 175.935C106.596 173.407 111.079 170.609 115.312 172.234C106.097 163.478 94.8899 166.547 85.6749 173.407C86.173 172.414 86.8372 171.151 87.3353 170.158C86.09 171.602 84.9277 171.873 84.0145 171.331Z" fill="#333333"/>
<path d="M20.9207 10.2909C20.6716 10.3812 20.3395 10.2006 20.0905 9.659C20.1735 9.92981 20.2565 10.3812 20.2565 10.7422C18.2641 8.03415 15.3584 6.13849 12.2037 7.76334C13.449 7.67307 14.5282 8.93684 15.2754 9.92981C16.4377 8.21469 17.5169 9.92981 18.015 11.1936C18.6792 10.5617 19.4263 10.8325 20.0075 11.2838V11.3741C20.1735 12.0963 20.7546 12.4574 21.2527 12.2768C21.8339 12.2768 22.2489 11.7352 22.1659 11.013V10.9228C22.581 10.2909 23.2452 9.74927 23.9923 10.1103C24.1584 8.7563 24.5735 6.77038 26.2338 7.94388C26.5659 6.58984 27.147 5.05526 28.3923 4.69418C24.8225 4.3331 22.7471 7.22172 21.6678 10.4714C21.5848 10.2006 21.5848 9.74927 21.5018 9.47846C21.4188 9.92981 21.1697 10.2909 20.9207 10.2909Z" fill="#333333"/>
</svg>
