<svg width="60" height="79" viewBox="0 0 60 79" fill="none" xmlns="http://www.w3.org/2000/svg">
<g id="Group">
<g id="Group_2">
<g id="Vector">
<path d="M38.7957 28.9004C38.7957 34.319 34.5903 38.7013 29.3781 38.7013C24.1658 38.7013 19.9605 34.319 19.9605 28.9004C19.9605 23.4818 29.3781 19.0996 29.3781 19.0996C29.3781 19.0996 38.7957 23.4818 38.7957 28.9004Z" fill="#333333"/>
<path d="M38.7957 28.9004C38.7957 34.319 34.5903 38.7013 29.3781 38.7013C24.1658 38.7013 19.9605 34.319 19.9605 28.9004C19.9605 23.4818 29.3781 19.0996 29.3781 19.0996C29.3781 19.0996 38.7957 23.4818 38.7957 28.9004Z" fill="black" fill-opacity="0.6"/>
</g>
<g id="Vector_2">
<path d="M34.0276 58.1845V55.9637H24.7581V58.1845C23.8104 57.0889 23.2477 55.6973 23.2477 54.1279C23.2477 53.062 23.84 52.0552 24.6989 51.1966C26.535 49.2719 29.4373 47.9691 29.4373 47.9691C29.4373 47.9691 32.3395 49.2719 34.1757 51.1966C35.0049 52.0849 35.6268 53.062 35.6268 54.1279C35.5676 55.6676 34.9753 57.0889 34.0276 58.1845Z" fill="#333333"/>
<path d="M34.0276 58.1845V55.9637H24.7581V58.1845C23.8104 57.0889 23.2477 55.6973 23.2477 54.1279C23.2477 53.062 23.84 52.0552 24.6989 51.1966C26.535 49.2719 29.4373 47.9691 29.4373 47.9691C29.4373 47.9691 32.3395 49.2719 34.1757 51.1966C35.0049 52.0849 35.6268 53.062 35.6268 54.1279C35.5676 55.6676 34.9753 57.0889 34.0276 58.1845Z" fill="black" fill-opacity="0.6"/>
</g>
<g id="Vector_3">
<path d="M39.7433 41.9584C39.7433 47.673 35.0938 52.3218 29.3781 52.3218C23.6624 52.3218 19.0128 47.673 19.0128 41.9584C19.0128 36.2437 23.6624 31.595 29.3781 31.595C35.0938 31.595 39.7433 36.2437 39.7433 41.9584Z" fill="#333333"/>
<path d="M39.7433 41.9584C39.7433 47.673 35.0938 52.3218 29.3781 52.3218C23.6624 52.3218 19.0128 47.673 19.0128 41.9584C19.0128 36.2437 23.6624 31.595 29.3781 31.595C35.0938 31.595 39.7433 36.2437 39.7433 41.9584Z" fill="black" fill-opacity="0.6"/>
</g>
</g>
<g id="Vector_4">
<path d="M21.2636 37.576C20.3752 36.2435 19.4867 34.8815 18.5983 33.5194C17.7098 32.1574 16.8214 30.7953 15.9625 29.4333L10.7503 21.2018L10.3949 20.6688L10.5134 20.1359C11.1649 16.8788 11.846 13.6217 12.5568 10.3647C12.9122 8.73612 13.2972 7.10759 13.7414 5.50867C14.156 3.90974 14.6298 2.28123 15.1925 0.711914C15.2221 2.39967 15.1629 4.0578 15.0445 5.74555C14.9556 7.40369 14.8075 9.06181 14.6298 10.72C14.2745 14.0362 13.8895 17.3229 13.5045 20.6392L13.2676 19.5733L18.8352 27.5383C19.7829 28.8707 20.6713 30.2031 21.5894 31.5356C22.5074 32.868 23.4255 34.2004 24.3139 35.5625L21.2636 37.576Z" fill="#333333"/>
<path d="M21.2636 37.576C20.3752 36.2435 19.4867 34.8815 18.5983 33.5194C17.7098 32.1574 16.8214 30.7953 15.9625 29.4333L10.7503 21.2018L10.3949 20.6688L10.5134 20.1359C11.1649 16.8788 11.846 13.6217 12.5568 10.3647C12.9122 8.73612 13.2972 7.10759 13.7414 5.50867C14.156 3.90974 14.6298 2.28123 15.1925 0.711914C15.2221 2.39967 15.1629 4.0578 15.0445 5.74555C14.9556 7.40369 14.8075 9.06181 14.6298 10.72C14.2745 14.0362 13.8895 17.3229 13.5045 20.6392L13.2676 19.5733L18.8352 27.5383C19.7829 28.8707 20.6713 30.2031 21.5894 31.5356C22.5074 32.868 23.4255 34.2004 24.3139 35.5625L21.2636 37.576Z" fill="black" fill-opacity="0.6"/>
</g>
<g id="Vector_5">
<path d="M21.7966 41.4845C20.3159 40.8034 18.8648 40.0632 17.4136 39.3526C15.9625 38.6419 14.5114 37.9017 13.0602 37.1615L8.73643 34.9703L4.41264 32.72L3.82034 32.3943L3.70188 31.8317L2.63574 27.0941C2.28036 25.5248 1.92498 23.9259 1.59921 22.3566C0.94768 19.1884 0.35538 15.9905 0 12.7631C1.30306 15.7536 2.39882 18.8034 3.40573 21.8829C3.90918 23.4226 4.41264 24.9623 4.88648 26.502L6.33761 31.1211L5.59724 30.2328L10.0691 32.1574L14.5114 34.1117C15.9921 34.7631 17.4729 35.4145 18.9536 36.0955C20.4344 36.7765 21.9151 37.428 23.3662 38.1386L21.7966 41.4845Z" fill="#333333"/>
<path d="M21.7966 41.4845C20.3159 40.8034 18.8648 40.0632 17.4136 39.3526C15.9625 38.6419 14.5114 37.9017 13.0602 37.1615L8.73643 34.9703L4.41264 32.72L3.82034 32.3943L3.70188 31.8317L2.63574 27.0941C2.28036 25.5248 1.92498 23.9259 1.59921 22.3566C0.94768 19.1884 0.35538 15.9905 0 12.7631C1.30306 15.7536 2.39882 18.8034 3.40573 21.8829C3.90918 23.4226 4.41264 24.9623 4.88648 26.502L6.33761 31.1211L5.59724 30.2328L10.0691 32.1574L14.5114 34.1117C15.9921 34.7631 17.4729 35.4145 18.9536 36.0955C20.4344 36.7765 21.9151 37.428 23.3662 38.1386L21.7966 41.4845Z" fill="black" fill-opacity="0.6"/>
</g>
<g id="Vector_6">
<path d="M22.7147 44.8304C21.6486 45.1561 20.5824 45.4522 19.5163 45.7483C18.4501 46.0444 17.384 46.3405 16.3179 46.6366C14.1856 47.1991 12.0237 47.7914 9.8914 48.3243L10.8983 47.288L9.18064 53.1507L7.43335 58.9838C6.84105 60.938 6.21914 62.8627 5.53799 64.7873C4.85685 66.7119 4.1757 68.6366 3.3761 70.5316C3.61302 68.4885 3.90917 66.4751 4.26455 64.4616C4.61993 62.4481 5.00492 60.4643 5.41953 58.4804L6.69298 52.5289L8.02565 46.5773L8.20334 45.8371L9.03256 45.541C11.1352 44.8008 13.2379 44.1197 15.3406 43.4091C16.3771 43.0538 17.4432 42.7281 18.5094 42.3728C19.5755 42.047 20.612 41.6917 21.6782 41.3956L22.7147 44.8304Z" fill="#333333"/>
<path d="M22.7147 44.8304C21.6486 45.1561 20.5824 45.4522 19.5163 45.7483C18.4501 46.0444 17.384 46.3405 16.3179 46.6366C14.1856 47.1991 12.0237 47.7914 9.8914 48.3243L10.8983 47.288L9.18064 53.1507L7.43335 58.9838C6.84105 60.938 6.21914 62.8627 5.53799 64.7873C4.85685 66.7119 4.1757 68.6366 3.3761 70.5316C3.61302 68.4885 3.90917 66.4751 4.26455 64.4616C4.61993 62.4481 5.00492 60.4643 5.41953 58.4804L6.69298 52.5289L8.02565 46.5773L8.20334 45.8371L9.03256 45.541C11.1352 44.8008 13.2379 44.1197 15.3406 43.4091C16.3771 43.0538 17.4432 42.7281 18.5094 42.3728C19.5755 42.047 20.612 41.6917 21.6782 41.3956L22.7147 44.8304Z" fill="black" fill-opacity="0.6"/>
</g>
<g id="Vector_7">
<path d="M25.2616 46.9031C24.4324 48.6797 23.5439 50.397 22.6555 52.144L19.9605 57.3553L20.0494 56.2302C20.5232 58.0956 20.9674 59.9906 21.4116 61.856C21.8559 63.7214 22.3001 65.6164 22.7147 67.5114C23.1589 69.4065 23.5439 71.3015 23.9289 73.1965C24.2843 75.1211 24.6101 77.0161 24.7878 78.9704C23.9289 77.1938 23.1885 75.3876 22.5074 73.5814C21.8263 71.7752 21.1747 69.9394 20.5528 68.1036C19.9309 66.2678 19.309 64.432 18.7167 62.5962C18.1244 60.7604 17.5025 58.9246 16.9398 57.0592L16.7621 56.5262L17.0286 55.934L19.4274 50.5747C20.2567 48.7981 21.0563 47.0215 21.9151 45.2745L25.2616 46.9031Z" fill="#333333"/>
<path d="M25.2616 46.9031C24.4324 48.6797 23.5439 50.397 22.6555 52.144L19.9605 57.3553L20.0494 56.2302C20.5232 58.0956 20.9674 59.9906 21.4116 61.856C21.8559 63.7214 22.3001 65.6164 22.7147 67.5114C23.1589 69.4065 23.5439 71.3015 23.9289 73.1965C24.2843 75.1211 24.6101 77.0161 24.7878 78.9704C23.9289 77.1938 23.1885 75.3876 22.5074 73.5814C21.8263 71.7752 21.1747 69.9394 20.5528 68.1036C19.9309 66.2678 19.309 64.432 18.7167 62.5962C18.1244 60.7604 17.5025 58.9246 16.9398 57.0592L16.7621 56.5262L17.0286 55.934L19.4274 50.5747C20.2567 48.7981 21.0563 47.0215 21.9151 45.2745L25.2616 46.9031Z" fill="black" fill-opacity="0.6"/>
</g>
<g id="Vector_8">
<path d="M35.6861 35.5625C36.5745 34.2004 37.4926 32.868 38.4107 31.5356C39.3287 30.2031 40.2172 28.8411 41.1649 27.5383L46.7325 19.5733L46.4956 20.6392C46.081 17.3525 45.7256 14.0362 45.3702 10.72C45.1925 9.06181 45.0444 7.40369 44.9556 5.74555C44.8667 4.08741 44.7779 2.39967 44.8075 0.711914C45.3702 2.31084 45.844 3.90974 46.2587 5.50867C46.7029 7.10759 47.0583 8.73612 47.4433 10.3647C48.154 13.6217 48.8352 16.8788 49.4867 20.1359L49.6051 20.6688L49.2794 21.2018L44.0671 29.4333C43.2083 30.7953 42.3199 32.1574 41.4314 33.5194C40.543 34.8815 39.6545 36.2435 38.7661 37.576L35.6861 35.5625Z" fill="#333333"/>
<path d="M35.6861 35.5625C36.5745 34.2004 37.4926 32.868 38.4107 31.5356C39.3287 30.2031 40.2172 28.8411 41.1649 27.5383L46.7325 19.5733L46.4956 20.6392C46.081 17.3525 45.7256 14.0362 45.3702 10.72C45.1925 9.06181 45.0444 7.40369 44.9556 5.74555C44.8667 4.08741 44.7779 2.39967 44.8075 0.711914C45.3702 2.31084 45.844 3.90974 46.2587 5.50867C46.7029 7.10759 47.0583 8.73612 47.4433 10.3647C48.154 13.6217 48.8352 16.8788 49.4867 20.1359L49.6051 20.6688L49.2794 21.2018L44.0671 29.4333C43.2083 30.7953 42.3199 32.1574 41.4314 33.5194C40.543 34.8815 39.6545 36.2435 38.7661 37.576L35.6861 35.5625Z" fill="black" fill-opacity="0.6"/>
</g>
<g id="Vector_9">
<path d="M36.6337 38.1682C38.0849 37.4576 39.5656 36.8062 41.0464 36.1251C42.5271 35.4441 44.0079 34.7927 45.4886 34.1413L49.9309 32.187L54.4027 30.2624L53.6624 31.1507L55.1135 26.5316C55.5873 24.9919 56.0908 23.4522 56.5942 21.9125C57.6308 18.8331 58.6969 15.7833 60.0296 12.7927C59.6446 16.0498 59.0819 19.218 58.4304 22.3862C58.1046 23.9852 57.7492 25.5545 57.3938 27.1238L56.3277 31.8613L56.2092 32.4239L55.6169 32.7496L51.2931 35L46.9694 37.1911C45.5182 37.9313 44.0967 38.6716 42.616 39.3822C41.1648 40.0929 39.7137 40.8035 38.2329 41.5141L36.6337 38.1682Z" fill="#333333"/>
<path d="M36.6337 38.1682C38.0849 37.4576 39.5656 36.8062 41.0464 36.1251C42.5271 35.4441 44.0079 34.7927 45.4886 34.1413L49.9309 32.187L54.4027 30.2624L53.6624 31.1507L55.1135 26.5316C55.5873 24.9919 56.0908 23.4522 56.5942 21.9125C57.6308 18.8331 58.6969 15.7833 60.0296 12.7927C59.6446 16.0498 59.0819 19.218 58.4304 22.3862C58.1046 23.9852 57.7492 25.5545 57.3938 27.1238L56.3277 31.8613L56.2092 32.4239L55.6169 32.7496L51.2931 35L46.9694 37.1911C45.5182 37.9313 44.0967 38.6716 42.616 39.3822C41.1648 40.0929 39.7137 40.8035 38.2329 41.5141L36.6337 38.1682Z" fill="black" fill-opacity="0.6"/>
</g>
<g id="Vector_10">
<path d="M38.3514 41.3364C39.4175 41.6621 40.4837 41.9878 41.5202 42.3135C42.5864 42.6392 43.6229 42.9649 44.689 43.3499C46.7917 44.0605 48.8943 44.7415 50.997 45.4818L51.8262 45.7779L52.0039 46.5181L53.3366 52.4697L54.61 58.4212C55.0247 60.405 55.4096 62.4185 55.765 64.4023C56.1204 66.4158 56.4462 68.4293 56.6535 70.4723C55.8539 68.5773 55.1727 66.6527 54.4916 64.7281C53.8104 62.8034 53.1885 60.8788 52.5962 58.9245L50.8489 53.0915L49.1313 47.2287L50.1382 48.2651C47.9763 47.7321 45.844 47.1399 43.7117 46.5773C42.6456 46.3108 41.5794 45.9851 40.5133 45.6891C39.4472 45.393 38.381 45.0968 37.3149 44.7711L38.3514 41.3364Z" fill="#333333"/>
<path d="M38.3514 41.3364C39.4175 41.6621 40.4837 41.9878 41.5202 42.3135C42.5864 42.6392 43.6229 42.9649 44.689 43.3499C46.7917 44.0605 48.8943 44.7415 50.997 45.4818L51.8262 45.7779L52.0039 46.5181L53.3366 52.4697L54.61 58.4212C55.0247 60.405 55.4096 62.4185 55.765 64.4023C56.1204 66.4158 56.4462 68.4293 56.6535 70.4723C55.8539 68.5773 55.1727 66.6527 54.4916 64.7281C53.8104 62.8034 53.1885 60.8788 52.5962 58.9245L50.8489 53.0915L49.1313 47.2287L50.1382 48.2651C47.9763 47.7321 45.844 47.1399 43.7117 46.5773C42.6456 46.3108 41.5794 45.9851 40.5133 45.6891C39.4472 45.393 38.381 45.0968 37.3149 44.7711L38.3514 41.3364Z" fill="black" fill-opacity="0.6"/>
</g>
<g id="Vector_11">
<path d="M38.0553 45.3337C38.9141 47.0807 39.7137 48.8573 40.543 50.6339L42.9418 55.9932L43.2083 56.5854L43.0306 57.1184C42.4679 58.9542 41.846 60.8196 41.2537 62.6554C40.6614 64.4912 40.0395 66.327 39.4176 68.1628C38.7957 69.9986 38.1738 71.8344 37.463 73.6406C36.7522 75.4468 36.0415 77.253 35.1826 79.0296C35.3603 77.0753 35.6861 75.1507 36.0415 73.2557C36.3969 71.3607 36.8115 69.4657 37.2557 67.5706C37.6999 65.6756 38.1145 63.7806 38.5588 61.9152C39.003 60.0202 39.4472 58.1547 39.921 56.2893L40.0099 57.4145L37.3149 52.2032C36.4561 50.4562 35.5676 48.7093 34.7088 46.9623L38.0553 45.3337Z" fill="#333333"/>
<path d="M38.0553 45.3337C38.9141 47.0807 39.7137 48.8573 40.543 50.6339L42.9418 55.9932L43.2083 56.5854L43.0306 57.1184C42.4679 58.9542 41.846 60.8196 41.2537 62.6554C40.6614 64.4912 40.0395 66.327 39.4176 68.1628C38.7957 69.9986 38.1738 71.8344 37.463 73.6406C36.7522 75.4468 36.0415 77.253 35.1826 79.0296C35.3603 77.0753 35.6861 75.1507 36.0415 73.2557C36.3969 71.3607 36.8115 69.4657 37.2557 67.5706C37.6999 65.6756 38.1145 63.7806 38.5588 61.9152C39.003 60.0202 39.4472 58.1547 39.921 56.2893L40.0099 57.4145L37.3149 52.2032C36.4561 50.4562 35.5676 48.7093 34.7088 46.9623L38.0553 45.3337Z" fill="black" fill-opacity="0.6"/>
</g>
</g>
</svg>
