<svg width="196" height="184" viewBox="0 0 196 184" fill="none" xmlns="http://www.w3.org/2000/svg">
<g id="Group">
<path id="Vector" d="M55.0966 183.761L54.9408 181.58C54.8629 180.373 52.6808 151.906 22.3271 153.152L20.9633 153.191L21.353 151.906C21.3919 151.712 27.0419 132.085 19.2878 118.338C15.8589 112.263 10.2869 108.136 2.7667 106.15L0.54567 105.565L2.53289 104.397C2.76668 104.28 24.4702 91.1959 26.847 73.6721C27.8991 65.8058 24.8988 58.1342 17.9241 50.8521L16.2096 49.0608L18.7034 49.2165C20.3399 49.2944 58.9542 51.0858 64.9548 2.13582L65.1886 0.14978L66.5913 1.55169C67.0199 1.98005 109.219 43.531 147.677 13.7794L150.405 11.6766L149.197 14.8698C148.963 15.4539 127.26 75.2297 192.76 108.175L195.02 109.304L192.604 109.966C191.903 110.161 124.026 129.398 131.663 171.338L132.014 173.324L130.221 172.351C129.792 172.117 88.1 149.881 56.6552 182.164L55.0966 183.761ZM24.2754 151.166C49.9533 151.166 55.5252 172.662 56.6552 179.438C85.2166 151.751 121.181 166.003 129.403 169.82C124.337 131.968 177.836 112.614 189.721 108.798C133.338 79.085 142.963 29.4341 146.431 17.0506C111.323 41.545 74.1895 11.0535 66.5913 4.19974C60.5517 46.3738 29.4967 50.6963 20.8075 51.0858C27.1588 58.3289 29.8473 66.0005 28.7563 73.9057C26.6522 89.4825 10.7935 101.243 5.33837 104.903C12.3521 107.24 17.6123 111.407 21.0023 117.404C28.0939 129.982 24.7429 146.493 23.574 151.205C23.8078 151.166 24.0416 151.166 24.2754 151.166Z" fill="#333333"/>
</g>
</svg>
