<svg width="32" height="32" viewBox="0 0 32 32" fill="none" xmlns="http://www.w3.org/2000/svg">
<g id="vuesax/outline/tick-square">
<g id="tick-square">
<path id="Vector" d="M20 30.3333H12C4.76002 30.3333 1.66669 27.24 1.66669 20V12C1.66669 4.75999 4.76002 1.66666 12 1.66666H20C27.24 1.66666 30.3334 4.75999 30.3334 12V20C30.3334 27.24 27.24 30.3333 20 30.3333ZM12 3.66666C5.85335 3.66666 3.66669 5.85332 3.66669 12V20C3.66669 26.1467 5.85335 28.3333 12 28.3333H20C26.1467 28.3333 28.3334 26.1467 28.3334 20V12C28.3334 5.85332 26.1467 3.66666 20 3.66666H12Z" fill="#E6EAEE"/>
<path id="Vector_2" d="M14.1067 20.7733C13.84 20.7733 13.5867 20.6667 13.4 20.48L9.62667 16.7067C9.24 16.32 9.24 15.68 9.62667 15.2933C10.0133 14.9067 10.6533 14.9067 11.04 15.2933L14.1067 18.36L20.96 11.5067C21.3467 11.12 21.9867 11.12 22.3733 11.5067C22.76 11.8933 22.76 12.5333 22.3733 12.92L14.8133 20.48C14.6267 20.6667 14.3733 20.7733 14.1067 20.7733Z" fill="#E6EAEE"/>
</g>
</g>
</svg>
